<svg width="221" height="53" viewBox="0 0 221 53" fill="none" xmlns="http://www.w3.org/2000/svg">
<path d="M0.68 47L19.82 1.7H20.18L39.32 47H32.06L18.14 11.54L22.64 8.6L6.92 47H0.68ZM12.26 30.68H27.86L30.02 36.08H10.4L12.26 30.68ZM55.3672 47.6C53.0072 47.6 50.8872 47.06 49.0072 45.98C47.1272 44.86 45.6472 43.28 44.5672 41.24C43.4872 39.2 42.9472 36.82 42.9472 34.1C42.9472 31.3 43.5272 28.92 44.6872 26.96C45.8472 25 47.4072 23.5 49.3672 22.46C51.3672 21.42 53.6072 20.9 56.0872 20.9C58.0072 20.9 59.8272 21.3 61.5472 22.1C63.3072 22.86 64.6872 23.94 65.6872 25.34L65.4472 27.44V0.379999H71.5072V47H65.3872V41L66.0472 42.62C64.8472 44.06 63.3272 45.26 61.4872 46.22C59.6872 47.14 57.6472 47.6 55.3672 47.6ZM57.2272 42.5C59.3472 42.5 61.1072 41.96 62.5072 40.88C63.9472 39.76 64.9072 38.28 65.3872 36.44V31.46C64.9472 29.78 63.9672 28.4 62.4472 27.32C60.9672 26.24 59.2272 25.7 57.2272 25.7C55.7872 25.7 54.4472 26.06 53.2072 26.78C51.9672 27.46 50.9672 28.44 50.2072 29.72C49.4872 30.96 49.1272 32.4 49.1272 34.04C49.1272 35.6 49.4872 37.02 50.2072 38.3C50.9672 39.58 51.9672 40.6 53.2072 41.36C54.4472 42.12 55.7872 42.5 57.2272 42.5ZM78.8066 34.22C78.8066 31.7 79.4066 29.44 80.6066 27.44C81.8066 25.4 83.4666 23.8 85.5866 22.64C87.7066 21.48 90.1266 20.9 92.8466 20.9C95.6066 20.9 98.0066 21.48 100.047 22.64C102.127 23.8 103.727 25.4 104.847 27.44C106.007 29.44 106.587 31.7 106.587 34.22C106.587 36.74 106.007 39.02 104.847 41.06C103.687 43.06 102.067 44.66 99.9866 45.86C97.9466 47.02 95.5266 47.6 92.7266 47.6C90.0866 47.6 87.7066 47.06 85.5866 45.98C83.5066 44.9 81.8466 43.36 80.6066 41.36C79.4066 39.32 78.8066 36.94 78.8066 34.22ZM84.9266 34.28C84.9266 35.84 85.2666 37.26 85.9466 38.54C86.6266 39.78 87.5466 40.78 88.7066 41.54C89.9066 42.26 91.2266 42.62 92.6666 42.62C94.9466 42.62 96.8066 41.82 98.2466 40.22C99.7266 38.62 100.467 36.64 100.467 34.28C100.467 31.92 99.7266 29.94 98.2466 28.34C96.8066 26.7 94.9466 25.88 92.6666 25.88C91.1866 25.88 89.8666 26.26 88.7066 27.02C87.5466 27.78 86.6266 28.8 85.9466 30.08C85.2666 31.36 84.9266 32.76 84.9266 34.28ZM128.896 47.6C127.056 47.6 125.276 47.2 123.556 46.4C121.876 45.56 120.556 44.42 119.596 42.98L119.956 41.12V59.06H113.896V21.5H119.116L119.956 27.68L119.356 25.94C120.556 24.46 122.056 23.26 123.856 22.34C125.696 21.38 127.756 20.9 130.036 20.9C132.396 20.9 134.516 21.46 136.396 22.58C138.276 23.7 139.756 25.28 140.836 27.32C141.916 29.32 142.456 31.68 142.456 34.4C142.456 37.12 141.856 39.48 140.656 41.48C139.496 43.44 137.896 44.96 135.856 46.04C133.816 47.08 131.496 47.6 128.896 47.6ZM127.696 42.8C129.256 42.8 130.676 42.44 131.956 41.72C133.276 41 134.316 40.02 135.076 38.78C135.876 37.5 136.276 36.06 136.276 34.46C136.276 32.82 135.916 31.36 135.196 30.08C134.476 28.8 133.496 27.8 132.256 27.08C131.016 26.36 129.636 26 128.116 26C126.036 26 124.276 26.56 122.836 27.68C121.436 28.8 120.476 30.28 119.956 32.12V36.62C120.276 38.42 121.156 39.9 122.596 41.06C124.036 42.22 125.736 42.8 127.696 42.8ZM161.516 47.6C158.636 47.6 156.156 47.04 154.076 45.92C151.996 44.76 150.396 43.18 149.276 41.18C148.156 39.14 147.596 36.84 147.596 34.28C147.596 31.8 148.216 29.56 149.456 27.56C150.736 25.52 152.436 23.9 154.556 22.7C156.676 21.5 159.036 20.9 161.636 20.9C164.996 20.9 167.776 21.88 169.976 23.84C172.216 25.76 173.716 28.48 174.476 32L154.016 39.08L152.576 35.6L169.016 29.6L167.756 30.44C167.276 29.16 166.516 28.06 165.476 27.14C164.436 26.18 163.016 25.7 161.216 25.7C158.976 25.7 157.136 26.48 155.696 28.04C154.296 29.56 153.596 31.52 153.596 33.92C153.596 36.48 154.356 38.54 155.876 40.1C157.396 41.66 159.316 42.44 161.636 42.44C162.716 42.44 163.756 42.26 164.756 41.9C165.756 41.5 166.696 40.98 167.576 40.34L170.336 44.84C169.056 45.68 167.636 46.36 166.076 46.88C164.556 47.36 163.036 47.6 161.516 47.6ZM183.679 10.94H189.799V21.98H196.519V26.72H189.799V47H183.679V26.72H179.239V21.98H183.679V10.94ZM210.453 47.54C208.613 47.54 206.853 47.22 205.173 46.58C203.493 45.9 202.073 44.94 200.913 43.7L203.493 40.22C204.533 41.22 205.613 41.98 206.733 42.5C207.893 43.02 208.973 43.28 209.973 43.28C211.133 43.28 212.153 43.06 213.033 42.62C213.913 42.14 214.353 41.36 214.353 40.28C214.353 39.4 214.053 38.72 213.453 38.24C212.893 37.76 212.173 37.36 211.293 37.04C210.413 36.72 209.473 36.42 208.473 36.14C206.393 35.46 204.793 34.5 203.673 33.26C202.593 31.98 202.053 30.48 202.053 28.76C202.053 27.44 202.373 26.2 203.013 25.04C203.693 23.84 204.713 22.88 206.073 22.16C207.433 21.4 209.113 21.02 211.113 21.02C212.873 21.02 214.453 21.24 215.853 21.68C217.253 22.08 218.553 22.78 219.753 23.78L217.413 27.44C216.693 26.72 215.833 26.18 214.833 25.82C213.873 25.42 212.993 25.2 212.193 25.16C211.113 25.16 210.173 25.42 209.373 25.94C208.573 26.42 208.173 27.08 208.173 27.92C208.173 28.76 208.453 29.44 209.013 29.96C209.573 30.44 210.293 30.84 211.173 31.16C212.093 31.44 213.013 31.74 213.933 32.06C215.773 32.66 217.293 33.48 218.493 34.52C219.733 35.56 220.353 37.08 220.353 39.08C220.353 40.6 219.993 42 219.273 43.28C218.553 44.56 217.453 45.6 215.973 46.4C214.533 47.16 212.693 47.54 210.453 47.54Z" fill="#6504B5"/>
<path d="M0.68 47L-0.241152 46.6108L-0.828113 48H0.68V47ZM19.82 1.7V0.699997H19.1569L18.8988 1.31079L19.82 1.7ZM20.18 1.7L21.1012 1.31079L20.8431 0.699997H20.18V1.7ZM39.32 47V48H40.8281L40.2412 46.6108L39.32 47ZM32.06 47L31.1292 47.3654L31.3783 48H32.06V47ZM18.14 11.54L17.5931 10.7028L16.9118 11.1479L17.2092 11.9054L18.14 11.54ZM22.64 8.6L23.5655 8.97886L24.7826 6.00565L22.0931 7.76283L22.64 8.6ZM6.92 47V48H7.59117L7.84545 47.3789L6.92 47ZM12.26 30.68V29.68H11.5468L11.3145 30.3543L12.26 30.68ZM27.86 30.68L28.7885 30.3086L28.537 29.68H27.86V30.68ZM30.02 36.08V37.08H31.497L30.9485 35.7086L30.02 36.08ZM10.4 36.08L9.45452 35.7543L8.9979 37.08H10.4V36.08ZM1.60115 47.3892L20.7412 2.0892L18.8988 1.31079L-0.241152 46.6108L1.60115 47.3892ZM19.82 2.7H20.18V0.699997H19.82V2.7ZM19.2588 2.0892L38.3989 47.3892L40.2412 46.6108L21.1012 1.31079L19.2588 2.0892ZM39.32 46H32.06V48H39.32V46ZM32.9908 46.6346L19.0708 11.1746L17.2092 11.9054L31.1292 47.3654L32.9908 46.6346ZM18.6869 12.3772L23.187 9.43716L22.0931 7.76283L17.5931 10.7028L18.6869 12.3772ZM21.7145 8.22114L5.99455 46.6211L7.84545 47.3789L23.5655 8.97886L21.7145 8.22114ZM6.92 46H0.68V48H6.92V46ZM12.26 31.68H27.86V29.68H12.26V31.68ZM26.9315 31.0514L29.0915 36.4514L30.9485 35.7086L28.7885 30.3086L26.9315 31.0514ZM30.02 35.08H10.4V37.08H30.02V35.08ZM11.3455 36.4057L13.2055 31.0057L11.3145 30.3543L9.45452 35.7543L11.3455 36.4057ZM49.0072 45.98L48.4954 46.8391L48.5022 46.8432L48.5091 46.8471L49.0072 45.98ZM44.5672 41.24L43.6834 41.7079L43.6834 41.7079L44.5672 41.24ZM44.6872 26.96L45.5478 27.4693L45.5478 27.4693L44.6872 26.96ZM49.3672 22.46L48.9058 21.5728L48.8985 21.5767L49.3672 22.46ZM61.5472 22.1L61.1255 23.0067L61.138 23.0126L61.1508 23.0181L61.5472 22.1ZM65.6872 25.34L66.6807 25.4535L66.7244 25.0716L66.5009 24.7588L65.6872 25.34ZM65.4472 27.44H64.4472L66.4407 27.5535L65.4472 27.44ZM65.4472 0.379999V-0.620001H64.4472V0.379999H65.4472ZM71.5072 0.379999H72.5072V-0.620001H71.5072V0.379999ZM71.5072 47V48H72.5072V47H71.5072ZM65.3872 47H64.3872V48H65.3872V47ZM65.3872 41L66.3133 40.6227L64.3872 41H65.3872ZM66.0472 42.62L66.8154 43.2602L67.1999 42.7988L66.9733 42.2427L66.0472 42.62ZM61.4872 46.22L61.9423 47.1105L61.9498 47.1066L61.4872 46.22ZM62.5072 40.88L63.118 41.6718L63.1211 41.6694L62.5072 40.88ZM65.3872 36.44L66.3548 36.6924L66.3872 36.5683V36.44H65.3872ZM65.3872 31.46H66.3872V31.3312L66.3546 31.2066L65.3872 31.46ZM62.4472 27.32L61.8577 28.1279L61.868 28.1352L62.4472 27.32ZM53.2072 26.78L53.688 27.6568L53.6987 27.6509L53.7093 27.6448L53.2072 26.78ZM50.2072 29.72L49.3473 29.2094L49.3424 29.2179L50.2072 29.72ZM50.2072 38.3L49.3356 38.7903L49.3414 38.8005L49.3473 38.8105L50.2072 38.3ZM53.2072 41.36L53.7298 40.5074L53.7298 40.5074L53.2072 41.36ZM55.3672 46.6C53.1661 46.6 51.2205 46.0982 49.5053 45.1129L48.5091 46.8471C50.5539 48.0218 52.8483 48.6 55.3672 48.6V46.6ZM49.519 45.1209C47.8053 44.1 46.4501 42.6593 45.451 40.7721L43.6834 41.7079C44.8443 43.9007 46.4491 45.62 48.4954 46.8391L49.519 45.1209ZM45.451 40.7721C44.4598 38.8999 43.9472 36.686 43.9472 34.1H41.9472C41.9472 36.954 42.5145 39.5001 43.6834 41.7079L45.451 40.7721ZM43.9472 34.1C43.9472 31.4383 44.4978 29.2433 45.5478 27.4693L43.8266 26.4507C42.5565 28.5967 41.9472 31.1617 41.9472 34.1H43.9472ZM45.5478 27.4693C46.6167 25.6633 48.0429 24.2947 49.8359 23.3433L48.8985 21.5767C46.7715 22.7053 45.0777 24.3367 43.8266 26.4507L45.5478 27.4693ZM49.8285 23.3472C51.6722 22.3885 53.7514 21.9 56.0872 21.9V19.9C53.463 19.9 51.0622 20.4515 48.9058 21.5728L49.8285 23.3472ZM56.0872 21.9C57.8633 21.9 59.5392 22.2689 61.1255 23.0067L61.9689 21.1933C60.1152 20.3311 58.1511 19.9 56.0872 19.9V21.9ZM61.1508 23.0181C62.7632 23.7143 63.9911 24.6859 64.8735 25.9212L66.5009 24.7588C65.3833 23.1941 63.8512 22.0056 61.9436 21.1819L61.1508 23.0181ZM64.6937 25.2265L64.4537 27.3265L66.4407 27.5535L66.6807 25.4535L64.6937 25.2265ZM66.4472 27.44V0.379999H64.4472V27.44H66.4472ZM65.4472 1.38H71.5072V-0.620001H65.4472V1.38ZM70.5072 0.379999V47H72.5072V0.379999H70.5072ZM71.5072 46H65.3872V48H71.5072V46ZM66.3872 47V41H64.3872V47H66.3872ZM64.4611 41.3773L65.1211 42.9973L66.9733 42.2427L66.3133 40.6227L64.4611 41.3773ZM65.279 41.9798C64.1722 43.3079 62.76 44.428 61.0246 45.3334L61.9498 47.1066C63.8943 46.092 65.5222 44.8121 66.8154 43.2602L65.279 41.9798ZM61.0321 45.3296C59.3901 46.1688 57.5094 46.6 55.3672 46.6V48.6C57.785 48.6 59.9843 48.1112 61.9423 47.1104L61.0321 45.3296ZM57.2272 43.5C59.5228 43.5 61.5102 42.9121 63.118 41.6718L61.8964 40.0882C60.7042 41.0079 59.1716 41.5 57.2272 41.5V43.5ZM63.1211 41.6694C64.7427 40.4082 65.8218 38.7358 66.3548 36.6924L64.4196 36.1876C63.9926 37.8242 63.1517 39.1118 61.8932 40.0906L63.1211 41.6694ZM66.3872 36.44V31.46H64.3872V36.44H66.3872ZM66.3546 31.2066C65.8505 29.2822 64.7225 27.71 63.0264 26.5048L61.868 28.1352C63.2119 29.09 64.0438 30.2778 64.4198 31.7134L66.3546 31.2066ZM63.0367 26.5122C61.3697 25.2958 59.4186 24.7 57.2272 24.7V26.7C59.0358 26.7 60.5647 27.1842 61.8577 28.1278L63.0367 26.5122ZM57.2272 24.7C55.6116 24.7 54.0983 25.1062 52.7051 25.9152L53.7093 27.6448C54.7961 27.0137 55.9628 26.7 57.2272 26.7V24.7ZM52.7264 25.9032C51.3212 26.6738 50.1936 27.7841 49.3473 29.2095L51.067 30.2305C51.7407 29.0959 52.6132 28.2462 53.688 27.6568L52.7264 25.9032ZM49.3424 29.2179C48.5217 30.6312 48.1272 32.2494 48.1272 34.04H50.1272C50.1272 32.5506 50.4526 31.2888 51.072 30.2221L49.3424 29.2179ZM48.1272 34.04C48.1272 35.7607 48.5262 37.3512 49.3356 38.7903L51.0788 37.8097C50.4482 36.6888 50.1272 35.4393 50.1272 34.04H48.1272ZM49.3473 38.8105C50.1883 40.2269 51.3027 41.3656 52.6846 42.2126L53.7298 40.5074C52.6317 39.8344 51.7461 38.9331 51.067 37.7895L49.3473 38.8105ZM52.6846 42.2126C54.0802 43.068 55.6008 43.5 57.2272 43.5V41.5C55.9736 41.5 54.8141 41.172 53.7298 40.5074L52.6846 42.2126ZM80.6066 27.44L81.4641 27.9545L81.4685 27.947L80.6066 27.44ZM85.5866 22.64L85.1066 21.7627L85.1066 21.7627L85.5866 22.64ZM100.047 22.64L99.5522 23.5093L99.5595 23.5134L100.047 22.64ZM104.847 27.44L103.97 27.9213L103.976 27.9316L103.982 27.9417L104.847 27.44ZM104.847 41.06L105.712 41.5617L105.716 41.5543L104.847 41.06ZM99.9866 45.86L100.481 46.7293L100.486 46.7262L99.9866 45.86ZM85.5866 45.98L85.1257 46.8675L85.1326 46.871L85.5866 45.98ZM80.6066 41.36L79.7446 41.867L79.7505 41.877L79.7567 41.8869L80.6066 41.36ZM85.9466 38.54L85.0634 39.0092L85.0698 39.0208L85.9466 38.54ZM88.7066 41.54L88.1585 42.3765L88.1751 42.3873L88.1921 42.3975L88.7066 41.54ZM98.2466 40.22L97.5124 39.5409L97.5033 39.551L98.2466 40.22ZM98.2466 28.34L97.4951 28.9998L97.5037 29.0095L97.5125 29.019L98.2466 28.34ZM88.7066 27.02L89.2546 27.8565L89.2546 27.8565L88.7066 27.02ZM85.9466 30.08L85.0634 29.6108L85.0634 29.6108L85.9466 30.08ZM79.8066 34.22C79.8066 31.8661 80.3648 29.7866 81.4641 27.9545L79.7491 26.9255C78.4483 29.0934 77.8066 31.5339 77.8066 34.22H79.8066ZM81.4685 27.947C82.5749 26.0661 84.1015 24.5925 86.0666 23.5173L85.1066 21.7627C82.8317 23.0075 81.0382 24.7339 79.7446 26.933L81.4685 27.947ZM86.0666 23.5173C88.0217 22.4475 90.2729 21.9 92.8466 21.9V19.9C89.9802 19.9 87.3914 20.5125 85.1066 21.7627L86.0666 23.5173ZM92.8466 21.9C95.464 21.9 97.6875 22.449 99.5523 23.5093L100.541 21.7707C98.3256 20.511 95.7492 19.9 92.8466 19.9V21.9ZM99.5595 23.5134C101.479 24.5841 102.943 26.05 103.97 27.9213L105.723 26.9587C104.511 24.75 102.774 23.0159 100.534 21.7666L99.5595 23.5134ZM103.982 27.9417C105.045 29.7758 105.587 31.8599 105.587 34.22H107.587C107.587 31.5401 106.968 29.1042 105.712 26.9383L103.982 27.9417ZM105.587 34.22C105.587 36.5799 105.045 38.6874 103.977 40.5657L105.716 41.5543C106.968 39.3526 107.587 36.9001 107.587 34.22H105.587ZM103.982 40.5583C102.913 42.4009 101.421 43.8777 99.4868 44.9938L100.486 46.7262C102.712 45.4423 104.46 43.7191 105.712 41.5617L103.982 40.5583ZM99.4923 44.9907C97.6296 46.0499 95.3868 46.6 92.7266 46.6V48.6C95.6664 48.6 98.2635 47.9901 100.481 46.7293L99.4923 44.9907ZM92.7266 46.6C90.2268 46.6 88.0051 46.0898 86.0405 45.089L85.1326 46.871C87.4081 48.0302 89.9463 48.6 92.7266 48.6V46.6ZM86.0474 45.0925C84.1279 44.0958 82.602 42.6807 81.4565 40.8331L79.7567 41.8869C81.0911 44.0393 82.8853 45.7042 85.1257 46.8675L86.0474 45.0925ZM81.4685 40.853C80.3717 38.9884 79.8066 36.7887 79.8066 34.22H77.8066C77.8066 37.0913 78.4414 39.6516 79.7446 41.867L81.4685 40.853ZM83.9266 34.28C83.9266 35.9908 84.3009 37.5738 85.0634 39.0092L86.8297 38.0708C86.2322 36.9462 85.9266 35.6892 85.9266 34.28H83.9266ZM85.0698 39.0208C85.8269 40.4016 86.8587 41.5248 88.1585 42.3765L89.2546 40.7035C88.2345 40.0352 87.4262 39.1584 86.8234 38.0592L85.0698 39.0208ZM88.1921 42.3975C89.5521 43.2135 91.0508 43.62 92.6666 43.62V41.62C91.4023 41.62 90.261 41.3065 89.2211 40.6825L88.1921 42.3975ZM92.6666 43.62C95.2111 43.62 97.3479 42.7134 98.9899 40.889L97.5033 39.551C96.2652 40.9266 94.682 41.62 92.6666 41.62V43.62ZM98.9807 40.899C100.646 39.0982 101.467 36.869 101.467 34.28H99.4666C99.4666 36.411 98.8067 38.1418 97.5125 39.541L98.9807 40.899ZM101.467 34.28C101.467 31.691 100.646 29.4618 98.9807 27.661L97.5125 29.019C98.8067 30.4182 99.4666 32.149 99.4666 34.28H101.467ZM98.998 27.6802C97.3587 25.8132 95.2197 24.88 92.6666 24.88V26.88C94.6734 26.88 96.2544 27.5868 97.4951 28.9998L98.998 27.6802ZM92.6666 24.88C91.0056 24.88 89.4925 25.3096 88.1585 26.1835L89.2546 27.8565C90.2406 27.2104 91.3675 26.88 92.6666 26.88V24.88ZM88.1585 26.1835C86.8512 27.04 85.8187 28.1891 85.0634 29.6108L86.8297 30.5492C87.4344 29.4109 88.2419 28.52 89.2546 27.8565L88.1585 26.1835ZM85.0634 29.6108C84.3029 31.0424 83.9266 32.6046 83.9266 34.28H85.9266C85.9266 32.9154 86.2302 31.6776 86.8297 30.5492L85.0634 29.6108ZM123.556 46.4L123.109 47.2944L123.122 47.3008L123.135 47.3067L123.556 46.4ZM119.596 42.98L118.614 42.79L118.536 43.1931L118.764 43.5347L119.596 42.98ZM119.956 41.12H120.956L118.974 40.93L119.956 41.12ZM119.956 59.06V60.06H120.956V59.06H119.956ZM113.896 59.06H112.896V60.06H113.896V59.06ZM113.896 21.5V20.5H112.896V21.5H113.896ZM119.116 21.5L120.107 21.3653L119.99 20.5H119.116V21.5ZM119.956 27.68L119.011 28.006L120.947 27.5453L119.956 27.68ZM119.356 25.94L118.579 25.3102L118.23 25.7413L118.411 26.266L119.356 25.94ZM123.856 22.34L124.311 23.2305L124.319 23.2266L123.856 22.34ZM136.396 22.58L135.884 23.4391L135.884 23.4391L136.396 22.58ZM140.836 27.32L139.952 27.7879L139.956 27.7951L140.836 27.32ZM140.656 41.48L139.799 40.9655L139.796 40.9707L140.656 41.48ZM135.856 46.04L136.31 46.9309L136.317 46.9274L136.324 46.9238L135.856 46.04ZM131.956 41.72L131.477 40.842L131.466 40.8484L131.956 41.72ZM135.076 38.78L134.228 38.25L134.224 38.2574L135.076 38.78ZM132.256 27.08L132.758 26.2152L132.758 26.2152L132.256 27.08ZM122.836 27.68L122.222 26.8906L122.212 26.8991L122.836 27.68ZM119.956 32.12L118.994 31.848L118.956 31.9814V32.12H119.956ZM119.956 36.62H118.956V36.7082L118.972 36.795L119.956 36.62ZM122.596 41.06L121.969 41.8388L121.969 41.8388L122.596 41.06ZM128.896 46.6C127.207 46.6 125.57 46.2338 123.978 45.4933L123.135 47.3067C124.982 48.1662 126.906 48.6 128.896 48.6V46.6ZM124.003 45.5056C122.465 44.7366 121.284 43.7083 120.428 42.4253L118.764 43.5347C119.829 45.1317 121.287 46.3834 123.109 47.2944L124.003 45.5056ZM120.578 43.17L120.938 41.31L118.974 40.93L118.614 42.79L120.578 43.17ZM118.956 41.12V59.06H120.956V41.12H118.956ZM119.956 58.06H113.896V60.06H119.956V58.06ZM114.896 59.06V21.5H112.896V59.06H114.896ZM113.896 22.5H119.116V20.5H113.896V22.5ZM118.125 21.6347L118.965 27.8147L120.947 27.5453L120.107 21.3653L118.125 21.6347ZM120.902 27.354L120.302 25.614L118.411 26.266L119.011 28.006L120.902 27.354ZM120.133 26.5698C121.24 25.2047 122.628 24.0909 124.311 23.2304L123.401 21.4496C121.485 22.4291 119.873 23.7153 118.579 25.3102L120.133 26.5698ZM124.319 23.2266C126.002 22.3482 127.901 21.9 130.036 21.9V19.9C127.611 19.9 125.39 20.4118 123.394 21.4534L124.319 23.2266ZM130.036 21.9C132.231 21.9 134.171 22.4185 135.884 23.4391L136.908 21.7209C134.861 20.5015 132.562 19.9 130.036 19.9V21.9ZM135.884 23.4391C137.598 24.46 138.953 25.9007 139.952 27.7879L141.72 26.8521C140.559 24.6593 138.954 22.94 136.908 21.7209L135.884 23.4391ZM139.956 27.7951C140.943 29.623 141.456 31.8134 141.456 34.4H143.456C143.456 31.5466 142.889 29.017 141.716 26.8449L139.956 27.7951ZM141.456 34.4C141.456 36.9693 140.891 39.1452 139.799 40.9655L141.514 41.9945C142.822 39.8148 143.456 37.2707 143.456 34.4H141.456ZM139.796 40.9707C138.731 42.7698 137.268 44.1612 135.388 45.1562L136.324 46.9238C138.525 45.7588 140.262 44.1102 141.517 41.9893L139.796 40.9707ZM135.402 45.1491C133.521 46.1082 131.36 46.6 128.896 46.6V48.6C131.633 48.6 134.112 48.0518 136.31 46.9309L135.402 45.1491ZM127.696 43.8C129.417 43.8 131.007 43.401 132.447 42.5916L131.466 40.8484C130.345 41.479 129.096 41.8 127.696 41.8V43.8ZM132.435 42.5979C133.903 41.7971 135.074 40.6968 135.929 39.3026L134.224 38.2574C133.558 39.3432 132.649 40.2029 131.477 40.8421L132.435 42.5979ZM135.924 39.31C136.83 37.8614 137.276 36.2357 137.276 34.46H135.276C135.276 35.8843 134.923 37.1386 134.228 38.25L135.924 39.31ZM137.276 34.46C137.276 32.6687 136.882 31.0363 136.068 29.5897L134.325 30.5703C134.951 31.6837 135.276 32.9713 135.276 34.46H137.276ZM136.068 29.5897C135.263 28.1581 134.157 27.0271 132.758 26.2152L131.754 27.9448C132.836 28.5729 133.69 29.4419 134.325 30.5703L136.068 29.5897ZM132.758 26.2152C131.357 25.4013 129.802 25 128.116 25V27C129.471 27 130.676 27.3187 131.754 27.9448L132.758 26.2152ZM128.116 25C125.847 25 123.862 25.6153 122.222 26.8906L123.45 28.4694C124.69 27.5047 126.226 27 128.116 27V25ZM122.212 26.8991C120.638 28.1583 119.567 29.8215 118.994 31.848L120.919 32.392C121.386 30.7385 122.235 29.4417 123.461 28.4609L122.212 26.8991ZM118.956 32.12V36.62H120.956V32.12H118.956ZM118.972 36.795C119.334 38.8358 120.343 40.5292 121.969 41.8388L123.224 40.2812C121.969 39.2708 121.218 38.0042 120.941 36.445L118.972 36.795ZM121.969 41.8388C123.598 43.1509 125.523 43.8 127.696 43.8V41.8C125.95 41.8 124.475 41.2891 123.224 40.2812L121.969 41.8388ZM154.076 45.92L153.589 46.7934L153.595 46.797L153.602 46.8005L154.076 45.92ZM149.276 41.18L148.399 41.6613L148.403 41.6686L149.276 41.18ZM149.456 27.56L148.609 27.0285L148.606 27.0331L149.456 27.56ZM169.976 23.84L169.31 24.5867L169.318 24.593L169.325 24.5993L169.976 23.84ZM174.476 32L174.803 32.945L175.64 32.6552L175.453 31.789L174.476 32ZM154.016 39.08L153.092 39.4624L153.452 40.3332L154.343 40.025L154.016 39.08ZM152.576 35.6L152.233 34.6606L151.253 35.0183L151.652 35.9824L152.576 35.6ZM169.016 29.6L169.57 30.432L168.673 28.6606L169.016 29.6ZM167.756 30.44L166.819 30.7911L167.262 31.9711L168.31 31.272L167.756 30.44ZM165.476 27.14L164.797 27.8748L164.805 27.882L164.813 27.889L165.476 27.14ZM155.696 28.04L154.961 27.3617L154.96 27.3625L155.696 28.04ZM155.876 40.1L155.159 40.7979L155.159 40.7979L155.876 40.1ZM164.756 41.9L165.094 42.8409L165.111 42.835L165.127 42.8285L164.756 41.9ZM167.576 40.34L168.428 39.8172L167.862 38.8949L166.987 39.5313L167.576 40.34ZM170.336 44.84L170.884 45.676L171.695 45.1439L171.188 44.3172L170.336 44.84ZM166.076 46.88L166.377 47.8336L166.384 47.8312L166.392 47.8287L166.076 46.88ZM161.516 46.6C158.765 46.6 156.455 46.0656 154.55 45.0395L153.602 46.8005C155.856 48.0144 158.506 48.6 161.516 48.6V46.6ZM154.563 45.0466C152.638 43.9731 151.174 42.5235 150.148 40.6914L148.403 41.6686C149.617 43.8365 151.354 45.5469 153.589 46.7934L154.563 45.0466ZM150.152 40.6987C149.121 38.8206 148.596 36.689 148.596 34.28H146.596C146.596 36.991 147.19 39.4594 148.399 41.6613L150.152 40.6987ZM148.596 34.28C148.596 31.9757 149.169 29.92 150.306 28.0869L148.606 27.0331C147.262 29.2 146.596 31.6243 146.596 34.28H148.596ZM150.303 28.0915C151.493 26.1938 153.071 24.6895 155.048 23.5703L154.063 21.8297C151.8 23.1105 149.978 24.8462 148.609 27.0285L150.303 28.0915ZM155.048 23.5703C157.008 22.461 159.196 21.9 161.636 21.9V19.9C158.875 19.9 156.343 20.539 154.063 21.8297L155.048 23.5703ZM161.636 21.9C164.787 21.9 167.319 22.8128 169.31 24.5867L170.641 23.0933C168.232 20.9472 165.204 19.9 161.636 19.9V21.9ZM169.325 24.5993C171.365 26.348 172.774 28.8563 173.498 32.211L175.453 31.789C174.657 28.1037 173.066 25.172 170.626 23.0807L169.325 24.5993ZM174.149 31.055L153.689 38.135L154.343 40.025L174.803 32.945L174.149 31.055ZM154.94 38.6976L153.5 35.2176L151.652 35.9824L153.092 39.4624L154.94 38.6976ZM152.918 36.5394L169.358 30.5394L168.673 28.6606L152.233 34.6606L152.918 36.5394ZM168.461 28.7679L167.201 29.6079L168.31 31.272L169.57 30.432L168.461 28.7679ZM168.692 30.0889C168.154 28.6534 167.299 27.4175 166.138 26.391L164.813 27.889C165.733 28.7025 166.398 29.6666 166.819 30.7911L168.692 30.0889ZM166.154 26.4052C164.883 25.232 163.196 24.7 161.216 24.7V26.7C162.835 26.7 163.988 27.128 164.797 27.8748L166.154 26.4052ZM161.216 24.7C158.714 24.7 156.602 25.5843 154.961 27.3617L156.43 28.7183C157.67 27.3757 159.237 26.7 161.216 26.7V24.7ZM154.96 27.3625C153.363 29.0967 152.596 31.3122 152.596 33.92H154.596C154.596 31.7278 155.228 30.0233 156.431 28.7175L154.96 27.3625ZM152.596 33.92C152.596 36.6917 153.426 39.0187 155.159 40.7979L156.592 39.4021C155.285 38.0613 154.596 36.2683 154.596 33.92H152.596ZM155.159 40.7979C156.881 42.5646 159.065 43.44 161.636 43.44V41.44C159.566 41.44 157.91 40.7554 156.592 39.4021L155.159 40.7979ZM161.636 43.44C162.829 43.44 163.984 43.2406 165.094 42.8409L164.417 40.9591C163.527 41.2794 162.602 41.44 161.636 41.44V43.44ZM165.127 42.8285C166.205 42.3974 167.217 41.837 168.164 41.1487L166.987 39.5313C166.174 40.123 165.306 40.6026 164.384 40.9715L165.127 42.8285ZM166.723 40.8628L169.483 45.3628L171.188 44.3172L168.428 39.8172L166.723 40.8628ZM169.787 44.004C168.584 44.7931 167.243 45.4366 165.759 45.9313L166.392 47.8287C168.028 47.2834 169.527 46.5669 170.884 45.676L169.787 44.004ZM165.774 45.9264C164.347 46.3772 162.929 46.6 161.516 46.6V48.6C163.143 48.6 164.764 48.3428 166.377 47.8336L165.774 45.9264ZM183.679 10.94V9.94H182.679V10.94H183.679ZM189.799 10.94H190.799V9.94H189.799V10.94ZM189.799 21.98H188.799V22.98H189.799V21.98ZM196.519 21.98H197.519V20.98H196.519V21.98ZM196.519 26.72V27.72H197.519V26.72H196.519ZM189.799 26.72V25.72H188.799V26.72H189.799ZM189.799 47V48H190.799V47H189.799ZM183.679 47H182.679V48H183.679V47ZM183.679 26.72H184.679V25.72H183.679V26.72ZM179.239 26.72H178.239V27.72H179.239V26.72ZM179.239 21.98V20.98H178.239V21.98H179.239ZM183.679 21.98V22.98H184.679V21.98H183.679ZM183.679 11.94H189.799V9.94H183.679V11.94ZM188.799 10.94V21.98H190.799V10.94H188.799ZM189.799 22.98H196.519V20.98H189.799V22.98ZM195.519 21.98V26.72H197.519V21.98H195.519ZM196.519 25.72H189.799V27.72H196.519V25.72ZM188.799 26.72V47H190.799V26.72H188.799ZM189.799 46H183.679V48H189.799V46ZM184.679 47V26.72H182.679V47H184.679ZM183.679 25.72H179.239V27.72H183.679V25.72ZM180.239 26.72V21.98H178.239V26.72H180.239ZM179.239 22.98H183.679V20.98H179.239V22.98ZM184.679 21.98V10.94H182.679V21.98H184.679ZM205.173 46.58L204.798 47.5069L204.807 47.5108L204.817 47.5145L205.173 46.58ZM200.913 43.7L200.11 43.1044L199.613 43.7742L200.183 44.3832L200.913 43.7ZM203.493 40.22L204.186 39.4992L203.367 38.7113L202.69 39.6244L203.493 40.22ZM206.733 42.5L206.312 43.4071L206.324 43.4125L206.733 42.5ZM213.033 42.62L213.48 43.5144L213.496 43.5064L213.512 43.4979L213.033 42.62ZM213.453 38.24L212.802 38.9993L212.815 39.0103L212.828 39.0209L213.453 38.24ZM211.293 37.04L211.635 36.1002L211.635 36.1002L211.293 37.04ZM208.473 36.14L208.162 37.0905L208.183 37.0972L208.203 37.103L208.473 36.14ZM203.673 33.26L202.909 33.9049L202.92 33.9178L202.931 33.9303L203.673 33.26ZM203.013 25.04L202.143 24.547L202.138 24.5569L203.013 25.04ZM206.073 22.16L206.541 23.0438L206.551 23.0385L206.561 23.0329L206.073 22.16ZM215.853 21.68L215.553 22.634L215.566 22.6379L215.578 22.6415L215.853 21.68ZM219.753 23.78L220.596 24.3187L221.07 23.576L220.393 23.0118L219.753 23.78ZM217.413 27.44L216.706 28.1471L217.586 29.0267L218.256 27.9787L217.413 27.44ZM214.833 25.82L214.449 26.7431L214.471 26.7525L214.494 26.7609L214.833 25.82ZM212.193 25.16L212.243 24.1612L212.218 24.16H212.193V25.16ZM209.373 25.94L209.888 26.7975L209.903 26.7882L209.918 26.7784L209.373 25.94ZM209.013 29.96L208.333 30.6928L208.347 30.7063L208.362 30.7193L209.013 29.96ZM211.173 31.16L210.831 32.0998L210.856 32.1089L210.882 32.1167L211.173 31.16ZM213.933 32.06L213.605 33.0045L213.614 33.0077L213.623 33.0107L213.933 32.06ZM218.493 34.52L217.838 35.2757L217.844 35.281L217.851 35.2862L218.493 34.52ZM219.273 43.28L218.402 42.7897L218.402 42.7897L219.273 43.28ZM215.973 46.4L216.44 47.2844L216.449 47.2797L215.973 46.4ZM210.453 46.54C208.732 46.54 207.093 46.2412 205.529 45.6455L204.817 47.5145C206.614 48.1988 208.494 48.54 210.453 48.54V46.54ZM205.548 45.6531C203.994 45.0238 202.698 44.1437 201.643 43.0168L200.183 44.3832C201.449 45.7363 202.993 46.7762 204.798 47.5069L205.548 45.6531ZM201.716 44.2956L204.296 40.8156L202.69 39.6244L200.11 43.1044L201.716 44.2956ZM202.8 40.9408C203.907 42.0049 205.076 42.8333 206.312 43.407L207.154 41.593C206.15 41.1267 205.16 40.4351 204.186 39.4992L202.8 40.9408ZM206.324 43.4125C207.579 43.9751 208.799 44.28 209.973 44.28V42.28C209.147 42.28 208.207 42.0649 207.142 41.5875L206.324 43.4125ZM209.973 44.28C211.261 44.28 212.439 44.0352 213.48 43.5144L212.586 41.7256C211.868 42.0848 211.006 42.28 209.973 42.28V44.28ZM213.512 43.4979C214.096 43.1793 214.571 42.7383 214.894 42.1663C215.215 41.5983 215.353 40.9568 215.353 40.28H213.353C213.353 40.6832 213.272 40.9717 213.152 41.1837C213.035 41.3917 212.85 41.5807 212.554 41.7421L213.512 43.4979ZM215.353 40.28C215.353 39.146 214.951 38.1579 214.078 37.4591L212.828 39.0209C213.155 39.2821 213.353 39.654 213.353 40.28H215.353ZM214.104 37.4807C213.432 36.9046 212.599 36.4507 211.635 36.1002L210.951 37.9798C211.747 38.2693 212.355 38.6154 212.802 38.9993L214.104 37.4807ZM211.635 36.1002C210.729 35.7707 209.764 35.4631 208.743 35.177L208.203 37.103C209.182 37.3769 210.098 37.6693 210.951 37.9798L211.635 36.1002ZM208.784 35.1895C206.82 34.5474 205.388 33.6662 204.415 32.5897L202.931 33.9303C204.199 35.3338 205.967 36.3726 208.162 37.0905L208.784 35.1895ZM204.437 32.6151C203.514 31.5208 203.053 30.2509 203.053 28.76H201.053C201.053 30.7091 201.672 32.4392 202.909 33.9049L204.437 32.6151ZM203.053 28.76C203.053 27.6096 203.33 26.5357 203.889 25.5231L202.138 24.5569C201.416 25.8643 201.053 27.2704 201.053 28.76H203.053ZM203.883 25.533C204.458 24.5177 205.329 23.6852 206.541 23.0438L205.605 21.2762C204.097 22.0748 202.928 23.1623 202.143 24.547L203.883 25.533ZM206.561 23.0329C207.735 22.3766 209.237 22.02 211.113 22.02V20.02C208.99 20.02 207.131 20.4234 205.585 21.2871L206.561 23.0329ZM211.113 22.02C212.791 22.02 214.267 22.2299 215.553 22.634L216.153 20.726C214.639 20.2501 212.955 20.02 211.113 20.02V22.02ZM215.578 22.6415C216.835 23.0005 218.012 23.6308 219.113 24.5482L220.393 23.0118C219.094 21.9292 217.671 21.1595 216.128 20.7185L215.578 22.6415ZM218.911 23.2413L216.571 26.9013L218.256 27.9787L220.596 24.3187L218.911 23.2413ZM218.12 26.7329C217.292 25.9042 216.304 25.2867 215.172 24.8791L214.494 26.7609C215.362 27.0733 216.095 27.5358 216.706 28.1471L218.12 26.7329ZM215.218 24.8969C214.181 24.4651 213.187 24.2084 212.243 24.1612L212.143 26.1588C212.8 26.1916 213.565 26.3749 214.449 26.7431L215.218 24.8969ZM212.193 24.16C210.946 24.16 209.811 24.4627 208.828 25.1016L209.918 26.7784C210.535 26.3773 211.28 26.16 212.193 26.16V24.16ZM208.859 25.0825C207.797 25.7192 207.173 26.6845 207.173 27.92H209.173C209.173 27.4755 209.349 27.1208 209.888 26.7975L208.859 25.0825ZM207.173 27.92C207.173 29.0074 207.547 29.9637 208.333 30.6928L209.694 29.2272C209.359 28.9163 209.173 28.5126 209.173 27.92H207.173ZM208.362 30.7193C209.035 31.2954 209.867 31.7493 210.831 32.0998L211.515 30.2202C210.719 29.9307 210.112 29.5845 209.664 29.2007L208.362 30.7193ZM210.882 32.1167C211.789 32.3928 212.697 32.6887 213.605 33.0045L214.262 31.1155C213.329 30.7913 212.397 30.4872 211.464 30.2033L210.882 32.1167ZM213.623 33.0107C215.363 33.5782 216.758 34.3399 217.838 35.2757L219.148 33.7643C217.828 32.6201 216.183 31.7418 214.243 31.1093L213.623 33.0107ZM217.851 35.2862C218.812 36.0922 219.353 37.2996 219.353 39.08H221.353C221.353 36.8604 220.655 35.0278 219.136 33.7538L217.851 35.2862ZM219.353 39.08C219.353 40.4345 219.034 41.6648 218.402 42.7897L220.145 43.7703C220.952 42.3352 221.353 40.7655 221.353 39.08H219.353ZM218.402 42.7897C217.787 43.8822 216.836 44.7967 215.498 45.5203L216.449 47.2797C218.07 46.4033 219.319 45.2378 220.145 43.7703L218.402 42.7897ZM215.506 45.5156C214.254 46.1766 212.588 46.54 210.453 46.54V48.54C212.798 48.54 214.812 48.1434 216.44 47.2844L215.506 45.5156Z" fill="#6504B5"/>
</svg>
