<svg width="35" height="35" viewBox="0 0 35 35" fill="none" xmlns="http://www.w3.org/2000/svg">
<path d="M7.29166 10.2083H27.4021C27.8096 10.2084 28.2125 10.2938 28.585 10.459C28.9574 10.6243 29.2911 10.8658 29.5646 11.1679C29.838 11.4701 30.0451 11.8262 30.1724 12.2132C30.2998 12.6003 30.3447 13.0098 30.3042 13.4152L29.4292 22.1652C29.3572 22.8849 29.0204 23.5522 28.4841 24.0375C27.9478 24.5229 27.2504 24.7916 26.5271 24.7917H12.6C11.9255 24.7919 11.2717 24.5584 10.75 24.1308C10.2283 23.7033 9.87095 23.1081 9.73874 22.4467L7.29166 10.2083Z" stroke="black" stroke-width="5" stroke-linejoin="round"/>
<path d="M23.3333 30.625H26.25M7.29166 10.2083L6.11041 5.47896C6.03141 5.1636 5.8493 4.88368 5.593 4.68366C5.33671 4.48365 5.02093 4.37501 4.69582 4.375H2.91666L7.29166 10.2083ZM11.6667 30.625H14.5833H11.6667Z" stroke="black" stroke-width="5" stroke-linecap="round" stroke-linejoin="round"/>

</svg>
