<svg width="100" height="83" viewBox="0 0 100 83" fill="none" xmlns="http://www.w3.org/2000/svg">
<path d="M87.8333 20.1667C87.1134 18.9192 86.0824 17.8797 84.841 17.1495C83.5996 16.4192 82.1901 16.0232 80.75 16H27.4166L25 6.58333C24.7558 5.67433 24.2111 4.87477 23.4545 4.31488C22.6979 3.755 21.774 3.46778 20.8333 3.5H12.5C11.3949 3.5 10.3351 3.93899 9.5537 4.72039C8.7723 5.50179 8.33331 6.5616 8.33331 7.66667C8.33331 8.77174 8.7723 9.83154 9.5537 10.6129C10.3351 11.3943 11.3949 11.8333 12.5 11.8333H17.6666L29.1666 54.5833C29.4108 55.4923 29.9556 56.2919 30.7122 56.8518C31.4688 57.4117 32.3926 57.6989 33.3333 57.6667H70.8333C71.6028 57.6643 72.3565 57.449 73.0111 57.0445C73.6656 56.64 74.1954 56.0621 74.5416 55.375L88.2083 28.0417C88.8007 26.8001 89.0764 25.4311 89.011 24.057C88.9456 22.6829 88.541 21.3464 87.8333 20.1667Z" fill="black"/>
<path d="M31.25 78.5C34.7018 78.5 37.5 75.7018 37.5 72.25C37.5 68.7982 34.7018 66 31.25 66C27.7982 66 25 68.7982 25 72.25C25 75.7018 27.7982 78.5 31.25 78.5Z" fill="black"/>
<path d="M72.9167 78.5C76.3685 78.5 79.1667 75.7018 79.1667 72.25C79.1667 68.7982 76.3685 66 72.9167 66C69.4649 66 66.6667 68.7982 66.6667 72.25C66.6667 75.7018 69.4649 78.5 72.9167 78.5Z" fill="black"/>
</svg>
