<svg width="50" height="50" viewBox="0 0 50 50" fill="none" xmlns="http://www.w3.org/2000/svg">
<path d="M43.9167 14.5833C43.5567 13.9596 43.0412 13.4399 42.4205 13.0747C41.7998 12.7096 41.0951 12.5116 40.375 12.5H13.7084L12.5 7.79167C12.3779 7.33716 12.1056 6.93738 11.7273 6.65744C11.349 6.3775 10.887 6.23389 10.4167 6.25H6.25002C5.69749 6.25 5.16758 6.46949 4.77688 6.8602C4.38618 7.2509 4.16669 7.7808 4.16669 8.33333C4.16669 8.88587 4.38618 9.41577 4.77688 9.80647C5.16758 10.1972 5.69749 10.4167 6.25002 10.4167H8.83335L14.5834 31.7917C14.7054 32.2462 14.9778 32.6459 15.3561 32.9259C15.7344 33.2058 16.1963 33.3494 16.6667 33.3333H35.4167C35.8014 33.3322 36.1783 33.2245 36.5056 33.0222C36.8328 32.82 37.0977 32.5311 37.2709 32.1875L44.1042 18.5208C44.4004 17.9 44.5382 17.2156 44.5055 16.5285C44.4728 15.8415 44.2705 15.1732 43.9167 14.5833Z" fill="black"/>
<path d="M15.625 43.75C17.3509 43.75 18.75 42.3509 18.75 40.625C18.75 38.8991 17.3509 37.5 15.625 37.5C13.8991 37.5 12.5 38.8991 12.5 40.625C12.5 42.3509 13.8991 43.75 15.625 43.75Z" fill="black"/>
<path d="M36.4583 43.75C38.1842 43.75 39.5833 42.3509 39.5833 40.625C39.5833 38.8991 38.1842 37.5 36.4583 37.5C34.7324 37.5 33.3333 38.8991 33.3333 40.625C33.3333 42.3509 34.7324 43.75 36.4583 43.75Z" fill="black"/>
</svg>
